<svg xmlns="http://www.w3.org/2000/svg" viewBox="0 0 1596.7139 1135.2725">
  <path d="M765.927 1135.04c-5.943-.3-11.587-1.16-12.542-1.908-.955-.748-5.688-1.863-10.517-2.477-19.11-2.43-41.87-14.493-51.713-27.41-5.93-7.782-9.664-18.466-12.365-35.374-2.676-16.743-16.793-43.32-31.778-59.825-5.262-5.796-6.375-5.774-18.235.357-2.73 1.41-10.437 4.62-17.13 7.133-11.045 4.148-14.25 4.57-34.742 4.58-21.664 0-22.944-.185-31.753-4.82-11.227-5.907-27.034-21.727-32.38-32.406-8.577-17.136-11.817-30.334-11.795-48.048.023-18.59 2.76-28.1 15.386-53.51 10.403-20.933 11.844-24.378 15.4-36.816 3.813-13.328 4.286-23.028 1.247-25.53-1.15-.945-6.98-2.628-12.96-3.74-17.122-3.182-45.56-11.8-70.23-21.28-22.354-8.59-59.043-27.954-67.833-35.802-1.898-1.695-4.008-3.082-4.687-3.082-2.088 0-23.023-17.34-34.548-28.616-18.622-18.22-31.26-34.477-59.355-76.36-32.062-47.8-35.786-56.836-35.88-87.085-.044-14.05-4.15-29.315-10.54-39.18-5.95-9.185-9.162-9.518-11.852-1.228-4.4 13.554-18.775 9.664-37.544-10.16-6.14-6.487-15.493-14.858-20.785-18.603-10.796-7.643-19.642-19.605-19.642-26.563 0-8.284 3.172-13.323 18.16-28.845 8.122-8.41 15.988-17.653 17.48-20.54 2.694-5.21 2.85-5.26 19.428-6.447 23.145-1.656 38.61.173 53.28 6.294 13.68 5.71 16.76 9.055 21.964 23.857 12.31 35.01 12.398 35.432 12.497 60.138.09 22.255-.136 23.9-4.584 33.334-2.573 5.457-7.208 13.735-10.3 18.393-10.258 15.458-11.538 23.483-5.68 35.586 3.82 7.89 18.083 21.47 34.332 32.69 15.686 10.828 34.4 25.517 39.218 30.78 6.54 7.147 11.77 16.058 26.472 45.11 7.378 14.578 15.69 29.893 18.474 34.03 2.782 4.14 5.09 8.28 5.126 9.198.087 2.13 11.524 10.87 14.225 10.87 3.677 0 5.24-3.99 7.373-18.813 1.158-8.047 2.68-14.63 3.38-14.63 2.976 0 10.078 7.245 15.127 15.435 13.438 21.796 20.596 31.315 26.757 35.584 9.132 6.33 11.663 4.152 10.47-9.007-1.132-12.474 1.2-17.388 7.545-15.893 5.063 1.194 17.062 9.934 29.495 21.485 4.533 4.21 9.037 7.39 10.01 7.066 2.458-.82 3.853-10.596 4.558-31.938l.6-18.234-7.477-3.98c-15.043-8.006-19.997-16.28-28.354-47.37-5.297-19.706-10.65-25.446-24.908-26.717l-9.49-.846-3.496-10.868c-5.988-18.623-14.536-31.776-20.646-31.768-5.833 0-14.81 18.93-19.35 40.79-1.337 6.43-2.803 4.407-8.355-11.53-6.473-18.583-18.44-42.998-23.327-47.588-6.078-5.71-8.615-3.48-11.68 10.268-3.27 14.676-9.606 33.14-11.372 33.14-.697 0-1.268-4.017-1.268-8.926 0-13.616-11.33-48.023-20.444-62.086-1.172-1.808-5.455-8.58-9.52-15.05-4.063-6.47-9.275-13.823-11.582-16.343-5.816-6.352-3.453-7.514 6.868-3.377 4.818 1.93 10.418 3.987 12.446 4.57 6.084 1.744 28.31 13.07 53.167 27.092 12.876 7.262 30.107 16.466 38.29 20.452l14.88 7.247 21.08-1.166 21.078-1.166 12.752 8.326c7.015 4.578 13.264 9.15 13.89 10.16 1.788 2.897 7.5 2.155 12.87-1.67 2.71-1.93 6.965-4.052 9.456-4.718 8.084-2.162 6.088-5.645-7.106-12.4-14.197-7.268-42.475-25.56-61.105-39.526-27.967-20.965-36.197-25.428-69.396-37.636-30.863-11.35-39.807-18.25-57.307-44.205-7.078-10.5-18.525-25.12-25.44-32.493-27.985-29.844-77.317-66.558-107.047-79.666-8.63-3.804-13.61-7.148-15.97-10.717-3.227-4.884-3.988-5.168-13.01-4.857-9.497.33-9.664.25-18.44-8.527-8.776-8.775-17.022-19.846-22.11-29.684-2.075-4.016-3.486-4.938-6.633-4.337-2.2.418-5.8-.446-8.005-1.92l-10.546-7.066c-9.736-6.526-20.99-18.05-25.994-26.617-6.086-10.42-9.11-23.375-11.993-51.402-2.52-24.503-5.238-33.122-13.13-41.655-4.737-5.123-19.353-11.725-29.082-13.137-4.505-.655-8.754-1.512-9.44-1.908-1.927-1.108 3.384-10.244 7.118-12.242 4.612-2.468 4.157-5.768-1.27-9.217C10.434 113.01 0 103.93 0 101.174c0-4.443 15.938-9.943 28.908-9.977 5.714 0 17.737 1.247 26.718 2.804 16.23 2.813 16.36 2.81 21.153-.735 16.912-12.505 27.685-2 45.983 44.846 2.35 6.016 5.366 14.293 6.703 18.394 6.51 19.974 9.55 27.25 14.226 34.044 16.047 23.325 40.02 36.317 88.742 48.094 27.482 6.643 45.203 11.337 49.33 13.07 1.84.77 6.73 2.653 10.87 4.182 20.3 7.5 52.676 28.057 84.568 53.696 26.33 21.167 40.793 30.252 59.896 37.624 13.93 5.376 42.158 11.516 65.395 14.224 22.566 2.63 50.643 7.295 69.396 11.532 5.977 1.35 18.703 2.47 28.28 2.49 15.518.056 18.174-.412 24.435-4.08 12.425-7.284 13.878-19.225 4.8-39.448-4.275-9.52-4.815-12.547-4.613-25.833.39-25.702 10.96-61.594 28.426-96.534 8.092-16.19 9.072-21.354 4.05-21.354-1.784 0-3.67-.687-4.188-1.526-1.703-2.757 2.54-52.446 6.01-70.378 9.3-48.053 29.8-78.42 65.804-97.47 11.582-6.128 20.463-9.1 41.805-13.984 24.92-5.705 70.008-6.562 84.444-1.606 28.588 9.815 51.664 28.18 69.576 55.37 4.847 7.357 11.143 15.535 13.99 18.173 8.177 7.574 9.535 12 10.632 34.643 1.225 25.285 4.91 36.703 15.287 47.38 8.364 8.608 12.754 9.667 34.235 8.26 10.467-.687 19.183-.358 24.476.922 16.748 4.05 30.106 18.21 43.086 45.67 3.357 7.102 6.103 13.33 6.103 13.838 0 3.135 16.225 34.348 21.723 41.79 8.417 11.394 14.21 26.155 17.653 44.985 2.282 12.483 2.393 16.592.688 25.623-1.16 6.146-1.4 11.35-.563 12.14 3.13 2.948 30.904 8.47 51.633 10.265 25.235 2.185 63.073.864 75.25-2.626 4.597-1.32 14.756-4.347 22.573-6.728 7.818-2.382 17.6-5.32 21.74-6.53l27.59-8.068c22.04-6.444 38.96-10.524 71.904-17.338 55.363-4.098 82.514-22.874 85.072-59.46-2.474-2.734-2.2-3.386 3.788-9.043 8.75-8.265 20.573-15.808 24.78-15.808 1.978 0 4.163 1.606 5.107 3.755.908 2.065 3.828 4.792 6.49 6.06 4.378 2.084 6.685 1.777 24.246-3.228 29.555-8.423 43.51-8.375 51.25.178 2.305 2.548 2.492 4.052 1.027 8.256-2.172 6.23-.966 10.062 3.167 10.062 3.75 0 8.277 6.095 8.277 11.143 0 2.04.753 4.175 1.672 4.743 3.86 2.387 1.645 6.69-3.637 7.063-7.44.524-8.973 2.604-6.435 8.732 3.883 9.374-.624 11.93-29.677 16.82-27.5 4.63-32.028 7.815-55.615 39.12-8.43 11.19-31.108 29.028-45.5 35.792-8.136 3.823-9.6 5.19-9.616 8.96-.045 11.63-27.35 24.107-81.12 37.07-4.597 1.108-12.875 4.377-18.393 7.265-9.31 4.872-32.96 22.18-42.64 31.21-18.113 16.89-34.416 27.816-62.883 42.145-33.517 16.87-43.402 18.72-80.925 15.142-13.633-1.3-14.902-1.117-31.082 4.493-19.354 6.71-26.822 10.265-27.904 13.286-.42 1.17 1.058 7.017 3.282 12.995 6.123 16.458 8.13 39.598 6.093 70.296-1.013 15.278-1.1 26.54-.215 27.528.825.92 6.172 1.694 11.882 1.72 11.652.057 17.74 2.072 31.65 10.484 8.115 4.91 10.652 5.66 16.49 4.875 12.5-1.676 24.506-17.17 34.33-44.306 8.444-23.328 15.003-34.705 27.782-48.19 13.184-13.912 22.66-20.868 52.27-38.368 34.357-20.308 47-29.08 70.015-48.577 11.836-10.028 23.6-19.738 26.14-21.578 2.538-1.84 9.87-7.62 16.288-12.846 15.022-12.23 37.74-27.018 52.66-34.28 6.462-3.144 15.224-8.604 19.473-12.133 8.636-7.173 12.904-9.51 28.627-15.672 29.522-11.57 37.17-13.538 52.948-13.617 14.4-.072 15.756.23 22.49 4.96 3.942 2.77 10.42 9.167 14.396 14.214 3.977 5.047 8.53 10.562 10.118 12.255 2.328 2.48 2.402 2.974.38 2.548-4.15-.876-15.58 6.676-20.465 13.52-3.24 4.54-5.076 9.92-6.278 18.4-3.038 21.413-8.272 26.46-29.052 28.01-11.773.878-50.11-2.936-60.838-6.053-7.727-2.245-9.767.597-10.91 15.195-.96 12.264-2.253 16.32-11.585 36.348-4.734 10.162-20.388 34.795-37.29 58.68-4.23 5.98-11.97 17.266-17.2 25.084-5.23 7.816-22.122 31.046-37.54 51.62-15.417 20.575-28.03 38.374-28.03 39.552 0 1.203 5.195 3.722 11.838 5.74 11.108 3.373 12.028 4.028 14.91 10.613 5.136 11.73 7.248 26.787 6.22 44.326-.99 16.87-3.193 25.804-7.624 30.92-1.435 1.658-10.17 7.994-19.41 14.08-9.243 6.086-17.29 11.798-17.886 12.694-.596.895-2.213 7.728-3.595 15.185-2.46 13.276-11.956 39.59-23.297 64.557-10.344 22.772-14.632 37.29-19.602 66.374-5.177 30.293-7.313 36.53-14.43 42.128-9.25 7.276-19.916 6.223-42.125-4.158-17.178-8.03-18.102-7.824-19.476 4.325-1.577 13.93-8.228 22.502-23.117 29.792-13.845 6.778-24.776 8.67-50.144 8.684h-19.614l-18.8 16.877c-34.24 30.74-51.55 42.013-76.766 49.996-16.183 5.124-30.19 6.673-75.902 8.393-40.474 1.524-67.647 4.304-88.577 9.062-5.545 1.26-15.726 2.788-22.624 3.395-6.897.607-14.42 1.75-16.72 2.54-5.005 1.72-28.377 2.837-43.413 2.077zm-33.508-77.663c0-.714-1.668-1.3-3.706-1.3-5.854 0-19.706 14.618-19.706 20.796 0 4.97.147 4.888 11.706-6.58 6.438-6.39 11.705-12.2 11.705-12.916zm47.477 17.795c.56-1.455 1.015-4.904 1.015-7.664s.565-4.73 1.255-4.374c11.95 6.152 15.538 7.034 28.845 7.094 10.577.056 15.807-.728 20.443-3.034 5.54-2.754 17.14-13.567 28.355-26.43l3.876-4.447 14.213 4.78c29.686 9.986 38.717 4.875 32.723-18.522-1.443-5.634-2.624-10.726-2.624-11.315 0-.588 4.702 3.535 10.45 9.164 12.232 11.978 21.843 17.26 31.407 17.26 8.74 0 19.456-6.2 25.03-14.48 4.013-5.962 4.18-7.245 4.18-32.235v-26.026l4.31-.502c2.435-.284 6.074.925 8.36 2.775 3.917 3.168 4.08 4.183 4.888 30.6.528 17.25 1.603 28.665 2.916 30.958 6.103 10.66 21.667 14.85 34.337 9.246 15.84-7.006 22.022-21.533 36.085-84.782 1.84-8.277 5.314-23.94 7.72-34.803l4.373-19.754-4.25-9.28c-8.286-18.102-15.868-28.72-24.856-34.813-15.538-10.534-29.02-31.68-43.187-67.732-7.76-19.75-7.924-20.066-10.337-20.066-1.258 0-5.977 5.324-10.487 11.833-19.72 28.46-33.838 46.595-44.053 56.59-10.82 10.59-28.825 23.546-32.717 23.546-1.1 0-4.338-3.763-7.197-8.362-2.858-4.598-6.308-8.36-7.666-8.36-1.358 0-4.587 3.07-7.176 6.823-2.588 3.754-7.69 10.71-11.336 15.457l-6.63 8.63-3.59-17.544c-1.974-9.65-4.894-21.123-6.488-25.495-3.457-9.48-13.072-18.352-24.153-22.292-31.262-11.114-36.04-15.718-16.37-15.773 17.564-.056 41.66-3.21 47.722-6.263 4.72-2.376 6.292-4.58 8.62-12.102 1.567-5.06 4.23-12.027 5.92-15.485 4.617-9.452 2.895-10.21-25.62-11.287-20.12-.76-25.688-1.526-30.47-4.192l-5.854-3.262 26.756-1.337c24.548-1.227 27.617-1.74 37.206-6.21 13.742-6.407 14.255-10.478 1.787-14.18-4.766-1.416-11.582-2.574-15.146-2.574-14.593 0-28.115-6.382-25.876-12.214 1.37-3.57 20.274-8.154 39.378-9.55 9.506-.696 18.007-1.987 18.89-2.87 1.026-1.027-1.035-2.614-5.712-4.4-9.625-3.677-14.438-9.065-22.975-25.722-7.356-14.352-17.573-25.508-23.362-25.508-1.828 0-6.53 3.462-10.447 7.695-16.563 17.897-28.623 29.134-36.02 33.565-7.023 4.207-9.465 4.726-22.23 4.723-12.755 0-15.09-.502-21.12-4.49-13.197-8.733-24.58-26.54-29.77-46.572-2.778-10.716-2.718-14.124.627-35.89.99-6.437 2.535-22.99 3.435-36.787 2.074-31.8 5.23-47.108 14.576-70.706 10.014-25.282 12.935-29.977 19.52-31.368 3.982-.84 13.596-9.313 37.942-33.438l32.607-32.31 15.05 1.628c55.568 6.016 93.466 29.207 111.726 68.37 13.858 29.72 18.734 45.627 22.15 72.257 2.53 19.716 2.525 22.717-.056 41.605-1.528 11.197-4.064 23.832-5.635 28.078-2.464 6.66-3.568 7.79-8.03 8.23-4.952.484-5.22.906-6.272 9.863-.605 5.145-2.274 14.03-3.71 19.744-2.566 10.217-2.54 10.525 1.485 18.563 2.252 4.496 5.406 12.18 7.008 17.073 1.603 4.894 3.95 9.296 5.218 9.782 1.268.485 5.893-.362 10.278-1.89 10.358-3.607 35.222-10.103 48.658-12.713 8.32-1.618 10.885-2.846 11.986-5.742.77-2.025 1.864-13.476 2.43-25.446.567-11.97 2.567-33.716 4.445-48.328 1.878-14.61 3.813-29.97 4.3-34.133 1.814-15.484-8.01-36.165-29.93-63.01-12.41-15.196-40.826-44.357-59.835-61.405-5.978-5.36-18.58-17.317-28.007-26.57-13.96-13.702-17.787-18.546-20.64-26.12-3.852-10.236-10.04-31.252-13.16-44.697-2.728-11.764-21.764-41.943-25.14-39.857-.67.414-1.602 7.734-2.072 16.266-.868 15.8-5.277 34.74-8.086 34.74-.855 0-1.554-1.153-1.554-2.564-18.908-19.17-43.667-62.3-72.14-54.02-3.56 1.066-6.987 1.426-7.614.8-.627-.627 2.012-4.35 5.863-8.275 3.85-3.924 7.002-7.948 7.002-8.943 0-.993-2.897-7.36-6.438-14.15-6.613-12.677-20.565-26.572-26.65-26.54-1.575.005-7.002 4.15-12.06 9.202-24.83 24.805-44.186 34.756-60.154 30.926-4.474-1.074-9.512-2.996-11.197-4.272-5.912-4.48-7.243-3.004-7.227 8.023.02 16.682 4.658 51.435 8.194 61.453 1.786 5.06 6.312 15.397 10.06 22.976 7.2 14.564 7.82 17.842 5.142 27.182-1.97 6.87.12 14.808 5.078 19.295 1.804 1.632 3.28 4.086 3.28 5.45 0 1.366-4.013 7.458-8.92 13.537-15.445 19.138-17.116 22.743-21.843 47.116-2.395 12.356-5.474 35.492-6.84 51.414-2.85 33.194-2.182 36.745 8.846 47.04 8.707 8.13 13.71 15.197 13.71 19.37 0 4.61-5.695 23.34-11.872 39.04-2.668 6.78-4.85 13.222-4.85 14.313 0 1.092 6.31 9.607 14.025 18.922 20.58 24.852 31.123 41.393 31.123 48.827 0 3.82-5.857 7.825-25.164 17.21-9.48 4.608-13.89 7.924-17.715 13.318-7.405 10.443-8.848 16.04-11.476 44.5-1.894 20.5-3.095 26.84-6.02 31.772-2.012 3.387-13.278 15.565-25.037 27.062-19.72 19.28-21.592 21.648-24.122 30.517-2.495 8.752-2.51 10.41-.16 18.49 1.61 5.54 5.898 13.086 11.404 20.067 8.698 11.03 8.94 11.19 16.864 11.19 19.223 0 31.736 7.763 45.225 28.056 9.242 13.906 13.906 25.69 17.023 43.012 4.542 25.248 5.942 28.454 18.017 41.24 6.156 6.52 11.193 12.512 11.193 13.316 0 .805.75 1.463 1.665 1.463.918 0 8.945 5.644 17.84 12.542 8.894 6.898 17.094 12.54 18.22 12.54 1.128 0 2.507-1.19 3.066-2.644zm-9.018-628.21c0-2.926 11.42-19.627 13.42-19.627 1.61 0 2.323 3.49 1.71 8.36-.315 2.49-11.47 13.195-13.877 13.315-.69.056-1.254-.887-1.254-2.05zm-56.796-46.272c-2.062-3.853-2.24-13.443-.304-16.493 3.135-4.942 9.193 9.39 6.755 15.98-1.703 4.604-4.158 4.8-6.45.513zm61.812.91c-5.978-1.1-13.127-3.255-15.886-4.788l-5.016-2.787 9.197-.1c5.06-.056 15.97-1.13 24.247-2.387 8.278-1.256 15.67-1.913 16.43-1.46 2.122 1.268-5.744 8.985-11.777 11.557-2.96 1.26-5.594 2.22-5.853 2.132-.26-.09-5.363-1.062-11.34-2.163zm65.633-36.188c-2.512-1.01-3.763-2.92-3.763-5.742 0-2.534-2.497-6.994-6.227-11.122l-6.227-6.893-9.86 1.03c-9.302.973-10.194.74-15.7-4.093-3.208-2.818-7.68-5.826-9.938-6.684-5.725-2.176-19.6-1.947-24.77.407-3.573 1.627-4.797 1.494-7.058-.767-2.534-2.534-2.397-2.866 1.842-4.477 2.518-.957 14.123-1.74 25.79-1.743 16.844-.002 22.416-.604 27.064-2.926 5.527-2.76 5.846-3.38 5.732-11.11-.103-7.013-.883-8.87-5.434-12.937-2.923-2.61-5.315-5.135-5.315-5.608 0-.473 2.42-.86 5.375-.86 18.55 10.837 66.742 50.697 49.94 68.424-6.866 7.144-12.836 8.564-21.453 5.1zm-64.897-70.963c-3.075-2.327-2.968-2.46 2.052-2.51 6.22-.06 10.588 1.37 10.588 3.47 0 2.408-9.102 1.715-12.64-.96zm-64.698 764.508c2.663-2.06 2.72-11.615.083-14.25-2.773-2.774-12.207-2.52-14.624.39-1.095 1.32-1.752 4.876-1.46 7.905.81 8.37 8.958 11.403 16 5.953zm395.81-87.904c.538-1.698 1.633-9.787 2.432-17.976 1.526-15.623 8.437-66.82 9.53-70.595 1.02-3.52 4.036-.513 7.428 7.397 6.454 15.057 13.856 6.403 13.856-16.202 0-8.205.46-14.918 1.02-14.918 1.818 0 10.125 13.833 18.05 30.057 11.403 23.345 19.533 34.512 28.5 39.15 2.61 1.35 5.548 1.943 6.53 1.32 1.91-1.212 5.65-23.125 6.757-39.592.828-12.336-1.63-18.614-12.03-30.736-8.753-10.204-12.596-16.87-12.596-21.856 0-4.362 2.9-4.34 16.723.13 7.24 2.34 15.734 3.59 25.442 3.74 12.56.194 15.018-.235 17.8-3.12 6.735-6.974 6.26-10.515-2.55-18.963-4.466-4.284-12.952-10.3-18.856-13.37l-10.736-5.58-7.64 3.908c-6.087 3.112-10.363 3.918-21.02 3.96-13.57.056-25.887 3.524-43.7 12.313-6.212 3.066-15.64 12.05-15.675 14.937-.06 4.952-5.556 43.802-8.467 59.84-4.11 22.638-6.642 79.242-3.546 79.242.972 0 2.208-1.39 2.747-3.09zm47.55-204.08c3.508-7.256 8.142-18.57 10.295-25.138 3.085-9.41 4.47-11.71 6.52-10.83 1.432.61 8.69 1.476 16.128 1.92 35.264 2.112 94.177-22.256 107.196-44.338 5.327-9.035 4.665-11.636-6.94-27.28-7.62-10.275-9.208-13.59-9.236-19.292-.028-6.122.662-7.343 6.238-11.018 3.448-2.274 13.043-6.183 21.32-8.687 23.083-6.984 30.1-10.005 30.1-12.957 0-1.456-8.485-10.59-18.854-20.298-16.62-15.562-19.858-17.868-27.342-19.473-28.86-6.19-35.843 14.563-23.874 70.957.975 4.59.022 3.99-11.293-7.108-6.798-6.668-13.587-12.123-15.09-12.123-1.5 0-5.306 3.573-8.455 7.942-7.185 9.967-77.258 89.063-81.676 92.192-2.825 2-4.44 1.87-12.016-.972-5.3-1.988-10.4-2.857-12.933-2.203-3.956 1.022-4.164 1.656-3.88 11.84.654 23.573 1.655 26.924 11.62 38.93 5.64 6.796 10.51 11.127 12.514 11.127 2.44 0 4.91-3.374 9.657-13.193zM1369.8 592.788c10.266-13.527 18.183-20.82 34.59-31.872 21.573-14.528 28.844-21.213 36.168-33.25 5.33-8.76 10.902-25.748 10.902-33.24 0-3.94-22.78-27.674-28.218-29.4-6.52-2.07-17.9 5.97-24.935 17.615-4.173 6.91-11.205 34.49-12.952 50.802-.66 6.16-1.74 10.577-2.403 9.818-1.456-1.67-7.77-19.633-9.155-26.045-.662-3.064-2.06-4.598-4.186-4.598-2.35 0-4.15 2.537-6.827 9.615-3.76 9.938-3.84 16.882-.58 50.06.725 7.367.25 12.6-1.653 18.184-1.47 4.312-2.263 8.5-1.764 9.308 1.346 2.178 6.57-1.14 11.014-6.996zm-506.114-3.286c30.35-.838 56.5-1.548 58.108-1.58 9.917-.195-5.872-13.33-28.697-23.878-9.863-4.558-18.205-7.054-27.915-8.353-30.16-4.034-74.134 4.54-101.828 19.857-13.94 7.71-20.084 12.927-18.41 15.634 1.085 1.76 7.586 1.963 32.458 1.022 17.106-.647 55.934-1.863 86.284-2.7zm-293.353-2.58c3.028-.88 8.245-10.953 8.245-15.92 0-1.853-1.112-5.52-2.47-8.147-6.34-12.257-9.064-29.184-10.914-67.796-2.53-52.782-5.667-83.014-9.172-88.363-1.542-2.355-6.08-5.867-10.085-7.805-6.765-3.275-7.634-3.34-12.284-.936-2.752 1.423-5.484 4.1-6.07 5.95-1.354 4.262-2.877 4.238-6.808-.106-3.34-3.69-5.282-3.604-16.61.75-14.07 5.41-28.135 1.67-36.89-9.808-2.46-3.227-5.08-5.867-5.817-5.867-.738 0-7.857 3.762-15.82 8.36-7.962 4.6-15.134 8.362-15.938 8.362-.803 0-8.794-8.842-17.758-19.65-31.96-38.532-63.102-73.243-86.73-96.674-17.912-17.763-19.183-18.674-31.888-22.857-13.02-4.286-23.122-5.544-57.156-7.118-20.01-.926-35.788-4.186-49.387-10.203-11.58-5.126-18.738-4.527-29.275 2.45-8.385 5.55-25.402 23.976-25.402 27.504 0 1.385 3.79 5.537 8.42 9.224 4.63 3.687 14.552 12.434 22.046 19.438 11.787 11.016 14.236 12.6 18.15 11.74 3.953-.868 6.423.81 19.49 13.246 11.367 10.816 15.432 13.773 16.908 12.298 1.476-1.476.698-3.227-3.232-7.283-5.945-6.133-5.852-9.83.363-14.465 3.763-2.807 4.956-2.972 8.36-1.158 4.786 2.55 8.026 6.522 8.1 9.93.106 4.876 9.87 23.177 13.36 25.046 4.556 2.438 9.162.924 13.336-4.383 4.037-5.13 5.08-4.59 10.138 5.243 4.594 8.933 14.71 18.673 21.043 20.262 2.765.694 6.635.056 10.417-1.765 7.578-3.614 7.68-3.492 17.114 20.563 10.76 27.437 17.21 38.71 22.147 38.71 2.307 0 4.585-4.68 10.432-21.426.422-1.208 1.566-1.703 2.543-1.1 2.22 1.372 16.445 23.215 29.04 44.585 11.76 19.96 20.987 30.8 24.925 29.29 2.397-.92 2.834-3.97 2.976-20.78.19-22.266 1.322-29.012 4.257-25.356 1.02 1.27 2.402 4.088 3.07 6.26 2.004 6.53 17.25 32.277 26.148 44.156 9.462 12.634 29.93 33.533 37.427 38.213 7.16 4.47 11.57 4.2 10.156-.62-1.03-3.516-5.88-32.233-5.945-35.214-.063-2.84 3.465.986 6.354 6.894 1.658 3.39 3.857 7.67 4.887 9.508 1.03 1.84 5.828 10.493 10.664 19.23 4.836 8.738 11.77 20.025 15.408 25.083 8.004 11.13 27.43 31.44 32.053 33.514 3.05 1.37 11.07.91 17.673-1.01zM195.07 318.93c-3.85-4.255-3.54-5.57 2.746-11.665 6.494-6.293 10.055-6.72 13.62-1.628 3.402 4.855 3.354 5.17-1.725 11.205-4.916 5.844-10.518 6.642-14.64 2.087zm26.36-6.452c-2.705-8.67-6.123-14.158-9.885-15.873-5.333-2.43-5.367-6.908-.08-10.372 4.048-2.652 4.177-2.583 8.162 4.406 4.394 7.706 7.064 22.205 4.393 23.856-.903.558-2.068-.352-2.59-2.018zm926.18 198.83c4.905-5.12 10.684-20.158 12.536-32.617.654-4.403 1.905-8.058 2.78-8.12.875-.06 5.472 7.246 10.216 16.24 5.173 9.81 11.454 18.993 15.694 22.948 6.242 5.822 7.767 6.48 13.038 5.625 7.276-1.18 14.74-7.998 17.32-15.82 1.09-3.296 1.566-10.763 1.102-17.245-.717-10.012-2.302-14.393-12.773-35.297-6.576-13.126-11.945-24.57-11.932-25.43.065-4.172 7.547-9.305 13.564-9.305 5.23 0 7.188 1.086 11.832 6.557 3.06 3.606 8.78 12.858 12.708 20.56 10.402 20.39 17.406 30.493 21.55 31.086 2.907.418 4.77-1.697 9.95-11.287 3.928-7.27 7.432-11.8 9.13-11.8 1.518 0 7.33 2.358 12.916 5.24 5.586 2.88 11.23 4.826 12.54 4.323 1.31-.5 2.874-3.99 3.475-7.746.6-3.758 1.53-6.832 2.063-6.832.534 0 2.884 1.505 5.222 3.344 5.568 4.38 8.095 4.218 13.15-.837 3.476-3.477 3.994-5.17 3.077-10.06-1.094-6.77 1.25-12.185 3.555-18.367 1.33-5.166 1.65-10.15 2.837-15.195 1.35-1.35 7.54 2.1 15.943 8.893 5.19 4.195 8.224 5.532 10.98 4.84 2.174-.546 5.382.146 7.473 1.612 3.316 2.322 3.764 2.307 4.71-.156.675-1.762-.874-4.703-4.383-8.323-6.226-6.423-7.777-14.538-5.572-29.158 1.618-10.728 4.306-12.395 8.114-5.03 2.174 4.204 2.375 6.22.934 9.382-3.02 6.627-2.147 10.204 4.205 17.234l6.04 6.685 4.957-4.17c2.727-2.295 6.395-4.173 8.152-4.173 3.802 0 8.832-10.598 7.308-15.398-.55-1.735-.088-8.57 1.03-15.19 1.936-11.48 2.144-11.862 4.52-8.282 3.598 5.416 6.66 4.635 9.876-2.517 2.475-5.506 2.9-5.814 3.48-2.525.454 2.562-1.486 6.295-6.14 11.813-3.74 4.437-6.803 8.584-6.803 9.214 0 3.18 4.97.262 12.907-7.575 10.487-10.356 11.284-15.124 3.93-23.5-2.697-3.072-5.414-7.62-6.04-10.11-.624-2.49-3.345-6.1-6.046-8.023-6.137-4.37-8.925-3.907-41.374 6.875-14.503 4.818-29.163 8.553-36.117 9.2-21.393 1.992-33.27 8.145-36.723 19.023-.882 2.78-2.26 3.057-11.536 2.31l-10.535-.844-12.34 11.112c-14.456 13.02-21.232 15.732-32.327 12.938-13.668-3.44-20.844-2.547-26.28 3.273l-4.834 5.174-10.92-3.916-10.92-3.915-6.2 3.34c-3.408 1.838-7.12 5.2-8.248 7.472-2.916 5.877-6.29 6.51-20.548 3.852-13.445-2.506-41.248-15.522-68.465-32.05-7.736-4.698-14.922-8.54-15.97-8.54-2.822 0-21.888 14.242-24.985 18.663-4.302 6.144-3.26 10.798 7.59 33.897 9.36 19.925 29.667 68.364 35.974 85.813 2.774 7.673 6.758 9.263 10.83 4.32 3.72-4.52 15.117-12.265 18.012-12.243 1.472 0 6.05 3.21 10.173 7.107 9.34 8.828 20.1 16.267 23.543 16.276 1.438.003 4.62-2.087 7.072-4.646zM1379 394.447c-.614-.613-1.116-2.494-1.116-4.18 0-3.486 3.367-4.047 6.354-1.06 2.988 2.99 2.427 6.355-1.06 6.355-1.685 0-3.566-.5-4.18-1.114zM683.025 196.485c17.198-13.01 58.093-17.306 120.46-12.653 21.154 1.58 40.698 3.022 43.432 3.208 8.96.61 7.448-4.813-4.52-16.193-14.95-14.22-25.682-19.223-45.596-21.26-33.055-3.382-66.094 2.79-92.81 17.337-31.496 17.15-30.89 16.695-31.465 23.616-.565 6.807.432 11.08 2.567 11.005.72-.056 4.288-2.302 7.932-5.06z"/>
</svg>
