<?xml version="1.0" encoding="UTF-8" standalone="no"?>
<!-- Created with Inkscape (http://www.inkscape.org/) -->

<svg
   xmlns:dc="http://purl.org/dc/elements/1.1/"
   xmlns:cc="http://creativecommons.org/ns#"
   xmlns:rdf="http://www.w3.org/1999/02/22-rdf-syntax-ns#"
   xmlns:svg="http://www.w3.org/2000/svg"
   xmlns="http://www.w3.org/2000/svg"
   xmlns:sodipodi="http://sodipodi.sourceforge.net/DTD/sodipodi-0.dtd"
   xmlns:inkscape="http://www.inkscape.org/namespaces/inkscape"
   id="svg3390"
   version="1.1"
   inkscape:version="0.91 r13725"
   width="1596.7139"
   height="1135.2725"
   viewBox="0 0 1596.7139 1135.2725"
   sodipodi:docname="skydive-p-tandem.svg">
  <metadata
     id="metadata3396">
    <rdf:RDF>
      <cc:Work
         rdf:about="">
        <dc:format>image/svg+xml</dc:format>
        <dc:type
           rdf:resource="http://purl.org/dc/dcmitype/StillImage" />
        <dc:title></dc:title>
      </cc:Work>
    </rdf:RDF>
  </metadata>
  <defs
     id="defs3394" />
  <sodipodi:namedview
     pagecolor="#ffffff"
     bordercolor="#666666"
     borderopacity="1"
     objecttolerance="10"
     gridtolerance="10"
     guidetolerance="10"
     inkscape:pageopacity="0"
     inkscape:pageshadow="2"
     inkscape:window-width="1366"
     inkscape:window-height="704"
     id="namedview3392"
     showgrid="false"
     inkscape:zoom="0.21575822"
     inkscape:cx="865.73385"
     inkscape:cy="899.15158"
     inkscape:window-x="0"
     inkscape:window-y="27"
     inkscape:window-maximized="1"
     inkscape:current-layer="svg3390"
     fit-margin-top="0"
     fit-margin-left="0"
     fit-margin-right="0"
     fit-margin-bottom="0" />
  <path
     style="fill:#000000"
     d="m 765.92686,1135.0396 c -5.94279,-0.301 -11.58643,-1.1589 -12.54142,-1.9074 -0.95498,-0.7481 -5.688,-1.8629 -10.5179,-2.4771 -19.11056,-2.4297 -41.8685,-14.4929 -51.7124,-27.4111 -5.9292,-7.7812 -9.66386,-18.4649 -12.36562,-35.3735 -2.67517,-16.7431 -16.79218,-43.3203 -31.77734,-59.8254 -5.26249,-5.7963 -6.37556,-5.7746 -18.23562,0.3568 -2.72829,1.4108 -10.43613,4.6208 -17.12857,7.1335 -11.04592,4.1471 -14.25001,4.569 -34.74263,4.5785 -21.66434,0 -22.94468,-0.1839 -31.75344,-4.8193 -11.22688,-5.9067 -27.03422,-21.72672 -32.37982,-32.40532 -8.5775,-17.1349 -11.81753,-30.3335 -11.7949,-48.047 0.0223,-18.5892 2.759,-28.1017 15.38587,-53.5101 10.40313,-20.933 11.84416,-24.3777 15.4012,-36.816 3.81149,-13.3279 4.28497,-23.0283 1.24609,-25.5288 -1.14963,-0.9459 -6.98139,-2.6292 -12.95947,-3.7401 -17.12297,-3.1833 -45.56134,-11.8001 -70.23199,-21.2803 -22.35249,-8.59 -59.04227,-27.9551 -67.83141,-35.8027 -1.89866,-1.6956 -4.00819,-3.0824 -4.68776,-3.0824 -2.08784,0 -23.02248,-17.34 -34.54816,-28.6162 -18.62156,-18.2185 -31.25902,-34.4766 -59.3542,-76.3605 -32.06239,-47.7979 -35.78597,-56.8355 -35.88022,-87.0837 -0.0446,-14.0509 -4.15054,-29.31685 -10.5402,-39.18054 -5.95049,-9.1859 -9.16148,-9.51922 -11.85187,-1.22906 -4.39908,13.5542 -18.77478,9.66414 -37.54377,-10.16022 -6.14095,-6.48643 -15.49457,-14.85741 -20.78588,-18.60255 -10.79665,-7.64247 -19.64276,-19.6042 -19.64276,-26.56162 0,-8.28458 3.1727,-13.32345 18.16171,-28.84582 8.12059,-8.40889 15.98629,-17.65219 17.47939,-20.54006 2.69295,-5.20832 2.84858,-5.26015 19.42683,-6.44629 23.14427,-1.65659 38.60985,0.17279 53.27936,6.29412 13.6804,5.71108 16.75968,9.05602 21.96404,23.85712 12.30976,35.01008 12.39761,35.43258 12.49666,60.13862 0.0892,22.25517 -0.13712,23.90005 -4.58475,33.33399 -2.57328,5.45801 -7.20809,13.73541 -10.29969,18.39411 -10.25799,15.4582 -11.53861,23.4825 -5.67942,35.5858 3.81967,7.8905 18.08183,21.4704 34.33138,32.6897 15.68598,10.8296 34.4004,25.5187 39.21742,30.7822 6.5411,7.1464 11.77076,16.0575 26.47265,45.1084 7.37809,14.5787 15.6911,29.8932 18.47335,34.0319 2.78219,4.1386 5.08919,8.2773 5.12665,9.197 0.087,2.1292 11.52412,10.8692 14.22437,10.8692 3.67703,0 5.24036,-3.9887 7.37346,-18.8121 1.15799,-8.0477 2.67852,-14.6317 3.37894,-14.6317 2.97694,0 10.07929,7.2467 15.12813,15.436 13.43822,21.7965 20.59575,31.3157 26.75676,35.5848 9.13233,6.3292 11.66274,4.152 10.46952,-9.007 -1.13112,-12.474 1.20203,-17.388 7.54559,-15.893 5.063,1.1933 17.06213,9.9333 29.49525,21.4842 4.53303,4.2112 9.03718,7.3917 10.00933,7.0678 2.45851,-0.8199 3.85374,-10.5961 4.55794,-31.9388 l 0.60163,-18.2341 -7.47795,-3.9793 c -15.04429,-8.0058 -19.99776,-16.2809 -28.35542,-47.3714 -5.29694,-19.7051 -10.64834,-25.4446 -24.90777,-26.7155 l -9.49084,-0.8461 -3.49477,-10.8692 c -5.98794,-18.6232 -14.53612,-31.7761 -20.64674,-31.7683 -5.8326,0 -14.81064,18.9314 -19.35114,40.7892 -1.33585,6.4307 -2.80125,4.4079 -8.35331,-11.5292 -6.47377,-18.583 -18.44213,-42.9976 -23.32832,-47.5877 -6.07769,-5.7094 -8.61501,-3.4787 -11.67885,10.2678 -3.27092,14.6757 -9.60745,33.1394 -11.37301,33.1394 -0.69803,0 -1.26908,-4.016 -1.26908,-8.925 0,-13.6161 -11.32975,-48.0236 -20.4438,-62.0862 -1.17192,-1.8082 -5.45557,-8.5805 -9.51916,-15.0497 -4.06358,-6.46913 -9.27613,-13.82342 -11.58342,-16.34341 -5.81604,-6.35097 -3.4524,-7.51259 6.86891,-3.37559 4.81719,1.93082 10.41785,3.9865 12.44588,4.56842 6.08348,1.74521 28.30877,13.07098 53.1671,27.09278 12.8758,7.2629 30.10637,16.4661 38.29012,20.452 l 14.87954,7.2473 21.07878,-1.1661 21.07873,-1.1655 12.75284,8.3253 c 7.01411,4.5784 13.2637,9.1513 13.88809,10.1619 1.7893,2.8951 7.50105,2.1538 12.87218,-1.6711 2.70921,-1.9291 6.96405,-4.0523 9.45519,-4.7184 8.08438,-2.1621 6.08841,-5.6453 -7.10584,-12.4004 -14.1967,-7.2679 -42.47515,-25.5599 -61.10507,-39.5255 -27.96698,-20.96535 -36.19666,-25.42843 -69.39581,-37.63653 -30.86354,-11.34915 -39.80769,-18.2486 -57.30693,-44.20488 -7.0776,-10.49856 -18.52474,-25.12019 -25.43813,-32.49287 -27.98621,-29.84412 -77.3183,-66.55816 -107.04844,-79.66589 -8.62927,-3.80423 -13.61078,-7.1475 -15.96952,-10.71651 -3.22771,-4.88446 -3.98823,-5.16818 -13.01114,-4.85771 -9.49608,0.32887 -9.66336,0.25083 -18.43945,-8.52649 -8.77543,-8.7751 -17.02116,-19.84666 -22.10835,-29.68415 -2.07658,-4.01549 -3.48719,-4.93742 -6.63447,-4.33599 -2.19843,0.41805 -5.80077,-0.44592 -8.00527,-1.92023 -2.20445,-1.47654 -6.9499,-4.65649 -10.54544,-7.06612 C 96.213934,270.11072 84.958762,258.58599 79.95585,250.02048 73.870306,239.60106 70.847489,226.64494 67.963464,198.61849 65.44197,174.11534 62.725108,165.49576 54.833598,156.96258 50.096399,151.8401 35.480237,145.23774 25.750658,143.82586 c -4.505937,-0.65439 -8.754302,-1.51222 -9.44068,-1.90742 -1.927365,-1.10866 3.384177,-10.24439 7.117953,-12.24265 4.611843,-2.46815 4.156673,-5.76738 -1.271421,-9.21655 C 10.435131,113.01186 0,103.92964 0,101.17499 c 0,-4.443009 15.937805,-9.943389 28.907975,-9.976839 5.713648,0 17.73669,1.2469 26.717851,2.80371 16.229548,2.81318 16.358919,2.80872 21.152696,-0.73521 16.913416,-12.50463 27.686668,-1.99827 45.984768,44.846449 2.34953,6.01542 5.36577,14.29276 6.7028,18.39408 6.51073,19.97375 9.55071,27.24889 14.22548,34.04355 16.04784,23.32426 40.02135,36.31661 88.74276,48.09328 27.48182,6.6425 45.20235,11.33745 49.32959,13.06928 1.83941,0.77144 6.73056,2.65376 10.86923,4.1827 20.30077,7.50033 52.67704,28.05711 84.56909,53.69623 26.32946,21.16714 40.79239,30.25214 59.89548,37.62371 13.93151,5.37609 42.15846,11.51581 65.39515,14.22364 22.56606,2.63036 50.64303,7.29577 69.39592,11.53254 5.97808,1.35057 18.70416,2.47093 28.28029,2.48989 15.51842,0.0557 18.17464,-0.41248 24.43543,-4.08126 12.4257,-7.28239 13.87872,-19.22405 4.79962,-39.44639 -4.27394,-9.51978 -4.81451,-12.54755 -4.61217,-25.8331 0.39129,-25.70322 10.96014,-61.5951 28.42566,-96.5355 8.0925,-16.18958 9.07241,-21.35386 4.05149,-21.35386 -1.78512,0 -3.67001,-0.68671 -4.18867,-1.52559 -1.70385,-2.75688 2.53855,-52.44655 6.00879,-70.37855 9.29927,-48.053149 29.79976,-78.418439 65.80489,-97.469139 11.58209,-6.12857 20.46314,-9.0994902 41.80474,-13.9845202 24.92053,-5.70494999 70.00916,-6.56223 84.44551,-1.60586 28.58742,9.8146402 51.66341,28.1786302 69.57557,55.3689802 4.847,7.35764 11.14291,15.53576 13.99093,18.17391 8.17594,7.57279 9.53371,11.99741 10.63105,34.641639 1.22522,25.28518 4.90927,36.70344 15.28721,47.38149 8.36496,8.60676 12.75441,9.66581 34.23569,8.25783 10.46678,-0.6856 19.18328,-0.35674 24.47568,0.92249 16.7472,4.04948 30.1051,18.20902 43.0855,45.67083 3.3566,7.10124 6.103,13.32847 6.103,13.83793 0,3.13424 16.2263,34.34789 21.7238,41.78969 8.4173,11.39429 14.2095,26.15471 17.6528,44.98524 2.2825,12.48233 2.3929,16.59146 0.6887,25.62296 -1.1594,6.14473 -1.4009,11.3497 -0.5632,12.13898 3.1277,2.94751 30.9028,8.46908 51.6322,10.26445 25.2345,2.185 63.0731,0.86452 75.2485,-2.62589 4.5986,-1.3188 14.7571,-4.34547 22.5746,-6.72666 7.8175,-2.38176 17.5998,-5.32035 21.7385,-6.53102 4.1386,-1.21011 16.5546,-4.84043 27.5911,-8.0672 22.0394,-6.4435 38.9592,-10.52364 71.9041,-17.33837 55.3633,-4.09742 82.5136,-22.87388 85.0724,-59.45916 -2.4743,-2.73403 -2.2011,-3.38618 3.7878,-9.04376 8.749,-8.26507 20.5728,-15.80776 24.7796,-15.80776 1.9777,0 4.1628,1.60642 5.1072,3.75518 0.9079,2.06515 3.8281,4.79194 6.4895,6.0589 4.3786,2.08522 6.6852,1.7781 24.2468,-3.22733 29.5547,-8.42281 43.5082,-8.37432 51.2488,0.17837 2.3056,2.54786 2.4928,4.05227 1.0275,8.2556 -2.1718,6.22946 -0.9653,10.06212 3.1677,10.06212 3.7492,0 8.2769,6.09569 8.2769,11.14292 0,2.04007 0.7525,4.17434 1.6722,4.74288 3.861,2.38622 1.6441,6.69043 -3.6376,7.06222 -7.4388,0.52395 -8.9716,2.60415 -6.4335,8.73217 3.883,9.37429 -0.6244,11.92884 -29.6775,16.81944 -27.4991,4.62973 -32.028,7.81525 -55.6146,39.12198 -8.4295,11.18807 -31.1081,29.02698 -45.5014,35.79099 -8.1348,3.82262 -9.6003,5.18825 -9.6151,8.95959 -0.045,11.63008 -27.3503,24.1074 -81.1186,37.0691 -4.5985,1.10866 -12.8758,4.37835 -18.394,7.26622 -9.31,4.87164 -32.9587,22.18047 -42.6409,31.20918 -18.1123,16.88967 -34.415,27.81632 -62.882,42.14531 -33.5179,16.87183 -43.4036,18.72183 -80.9263,15.14223 -13.6334,-1.3004 -14.9021,-1.11702 -31.0823,4.49262 -19.3536,6.70936 -26.8215,10.26556 -27.9034,13.28606 -0.4186,1.1689 1.0585,7.0165 3.2827,12.9946 6.123,16.4577 8.1287,39.5975 6.0929,70.2955 -1.0131,15.2777 -1.1008,26.5393 -0.2146,27.5276 0.8251,0.9197 6.172,1.6939 11.882,1.7207 11.6515,0.056 17.7394,2.0707 31.6486,10.4829 8.1164,4.909 10.6529,5.6587 16.4904,4.8756 12.5018,-1.6767 24.5072,-17.1712 34.3299,-44.3069 8.4446,-23.3287 15.0037,-34.7057 27.7825,-48.1903 13.1848,-13.9126 22.6597,-20.8678 52.2693,-38.3684 34.358,-20.30758 47.0003,-29.07877 70.0156,-48.5765 11.8372,-10.02868 23.6001,-19.73852 26.14,-21.57793 2.5398,-1.83941 9.87,-7.62017 16.2893,-12.84632 15.0218,-12.22984 37.7413,-27.01924 52.661,-34.28044 6.4613,-3.14427 15.2236,-8.60453 19.4718,-12.13341 8.6351,-7.17313 12.9031,-9.50974 28.6264,-15.67231 29.522,-11.56988 37.1714,-13.53749 52.948,-13.61664 14.3994,-0.0725 15.756,0.22853 22.4906,4.96027 3.9417,2.77026 10.4197,9.16638 14.3954,14.21361 3.9758,5.04722 8.5285,10.56155 10.1171,12.25436 2.3281,2.48042 2.4019,2.97483 0.3802,2.54842 -4.1498,-0.87567 -15.5815,6.67649 -20.4652,13.52021 -3.2402,4.54055 -5.0763,9.9211 -6.2786,18.39854 -3.0371,21.41461 -8.2716,26.46128 -29.0513,28.0114 -11.773,0.8779 -50.1111,-2.93636 -60.838,-6.05277 -7.7269,-2.24519 -9.7672,0.59642 -10.9104,15.19463 -0.9603,12.26384 -2.2527,16.3189 -11.5846,36.34838 -4.7344,10.16134 -20.388,34.7949 -37.2897,58.6805 -4.2301,5.9781 -11.9699,17.2653 -17.1996,25.0828 -5.2297,7.8175 -22.1228,31.0476 -37.5402,51.6216 -15.4175,20.5746 -28.0318,38.3734 -28.0318,39.5518 0,1.2028 5.1964,3.7217 11.8386,5.7395 11.1084,3.3739 12.028,4.0283 14.9111,10.6139 5.1354,11.7304 7.2477,26.7863 6.2188,44.3259 -0.9895,16.8684 -3.1924,25.803 -7.6233,30.9199 -1.4347,1.6571 -10.1699,7.9925 -19.4115,14.0787 -9.2416,6.0862 -17.2899,11.7984 -17.8851,12.6936 -0.5952,0.8957 -2.2127,7.7288 -3.5943,15.1851 -2.4604,13.2778 -11.9558,39.5902 -23.2976,64.5588 -10.3436,22.7713 -14.6314,37.2898 -19.6018,66.3736 -5.1768,30.2918 -7.3131,36.5279 -14.4313,42.12702 -9.2495,7.2757 -19.9149,6.2227 -42.1233,-4.15772 -17.1776,-8.0293 -18.1013,-7.8241 -19.4757,4.32492 -1.5761,13.9304 -8.2273,22.5021 -23.1169,29.7917 -13.8442,6.7779 -24.7761,8.6709 -50.1433,8.6837 l -19.6142,0 -18.7983,16.8763 c -34.2405,30.7393 -51.5505,42.0126 -76.7673,49.9962 -16.18296,5.1236 -30.19084,6.6726 -75.90175,8.3933 -40.47435,1.5239 -67.64726,4.3036 -88.57722,9.0616 -5.54509,1.2603 -15.7256,2.7881 -22.62338,3.3951 -6.89778,0.6064 -14.42263,1.7497 -16.7219,2.5395 -5.00464,1.7196 -28.37672,2.8377 -43.41276,2.0768 z m -33.50788,-77.6626 c 0,-0.7141 -1.66729,-1.2988 -3.70502,-1.2988 -5.85378,0 -19.70564,14.6172 -19.70564,20.7948 0,4.9709 0.14716,4.8884 11.70533,-6.5812 6.43793,-6.3888 11.70533,-12.2002 11.70533,-12.9148 z m 47.47847,17.7949 c 0.55823,-1.4549 1.01502,-4.904 1.01502,-7.6643 0,-2.7607 0.56436,-4.7289 1.25414,-4.3738 11.95153,6.1519 15.53821,7.0343 28.84521,7.0939 10.57755,0.056 15.80727,-0.7279 20.44319,-3.0333 5.54002,-2.7547 17.13994,-13.5676 28.35476,-26.4312 l 3.87602,-4.4463 14.21361,4.7807 c 29.68705,9.9852 38.71771,4.8739 32.72391,-18.5222 -1.44349,-5.6342 -2.6245,-10.726 -2.6245,-11.3152 0,-0.5886 4.70303,3.535 10.45118,9.1636 12.23207,11.9785 21.84309,17.2604 31.40723,17.2604 8.73953,0 19.45531,-6.1989 25.02917,-14.479 4.01409,-5.963 4.18047,-7.2461 4.18047,-32.23592 l 0,-26.0254 4.31046,-0.5016 c 2.43454,-0.2843 6.07323,0.9247 8.36095,2.7752 3.9161,3.1677 4.07824,4.1827 4.88658,30.6005 0.52786,17.24982 1.60291,28.66362 2.9158,30.95732 6.10195,10.6585 21.66655,14.8496 34.33615,9.2455 15.8387,-7.0065 22.0219,-21.5339 36.0852,-84.78282 1.8404,-8.2773 5.3143,-23.9385 7.7197,-34.8033 l 4.3735,-19.7535 -4.2497,-9.2824 c -8.2869,-18.1008 -15.8687,-28.7198 -24.8561,-34.8121 -15.5373,-10.5332 -29.0207,-31.6791 -43.1869,-67.7315 -7.7603,-19.7491 -7.9235,-20.0663 -10.33651,-20.0663 -1.25793,0 -5.97707,5.3254 -10.48702,11.8341 -19.72019,28.4601 -33.83709,46.5955 -44.05166,56.5908 -10.8213,10.5888 -28.82515,23.5455 -32.71728,23.5455 -1.09952,0 -4.33794,-3.7624 -7.19654,-8.3609 -2.85861,-4.5985 -6.30845,-8.361 -7.66638,-8.361 -1.35787,0 -4.58704,3.0707 -7.17587,6.8237 -2.58882,3.7529 -7.69056,10.7081 -11.33722,15.4555 l -6.63023,8.6318 -3.58941,-17.5457 c -1.97419,-9.6502 -4.894,-21.1226 -6.48848,-25.4942 -3.45692,-9.4791 -13.07179,-18.3529 -24.15272,-22.2925 -31.26186,-11.114 -36.04059,-15.7181 -16.37146,-15.7732 17.56496,-0.056 41.66193,-3.2112 47.72356,-6.2624 4.72121,-2.3762 6.29134,-4.5807 8.62036,-12.1027 1.56629,-5.0584 4.22975,-12.0264 5.91894,-15.4845 4.61697,-9.4518 2.89529,-10.2104 -25.61861,-11.2873 -20.11978,-0.7597 -25.68929,-1.5256 -30.47225,-4.1916 l -5.85267,-3.2625 26.75504,-1.3371 c 24.54785,-1.2269 27.61721,-1.7391 37.20621,-6.21 13.74127,-6.4062 14.25424,-10.4779 1.78673,-14.1807 -4.7654,-1.4147 -11.5808,-2.573 -15.14529,-2.573 -14.59287,0 -28.1143,-6.3833 -25.87619,-12.2153 1.36936,-3.569 20.27457,-8.1536 39.37867,-9.5504 9.50612,-0.6951 18.00647,-1.9866 18.88972,-2.8695 1.02645,-1.0267 -1.03475,-2.6142 -5.71214,-4.4007 -9.62496,-3.676 -14.43763,-9.0638 -22.97444,-25.721 -7.35512,-14.3524 -17.57253,-25.5082 -23.36171,-25.5082 -1.82804,0 -6.5289,3.4626 -10.44639,7.6949 -16.56415,17.8958 -28.62448,29.1334 -36.0223,33.5647 -7.02203,4.2067 -9.46382,4.7251 -22.22937,4.7223 -12.75417,0 -15.09067,-0.5017 -21.1183,-4.4887 -13.19787,-8.7339 -24.58213,-26.5421 -29.77266,-46.5733 -2.77673,-10.7154 -2.71709,-14.1233 0.62818,-35.8885 0.98944,-6.4379 2.53521,-22.9926 3.43501,-36.7882 2.07408,-31.79833 5.23,-47.10666 14.57654,-70.7046 10.01401,-25.28295 12.93505,-29.97734 19.51868,-31.36804 3.98321,-0.84112 13.59674,-9.31354 37.94259,-33.43822 l 32.6077,-32.31172 15.0497,1.62927 c 55.56769,6.01598 93.46631,29.20758 111.72645,68.37026 13.85771,29.72093 18.7337,45.62736 22.14937,72.25697 2.52886,19.71568 2.52495,22.71668 -0.0557,41.60518 -1.52854,11.1964 -4.06459,23.8315 -5.63561,28.0777 -2.46352,6.6593 -3.56801,7.7908 -8.02924,8.2289 -4.95208,0.4849 -5.21979,0.9069 -6.27255,9.8642 -0.60483,5.1459 -2.27401,14.0314 -3.70936,19.7452 -2.56637,10.2171 -2.54173,10.5248 1.48485,18.563 2.25199,4.496 5.40557,12.1786 7.00803,17.0725 1.60241,4.894 3.95044,9.2963 5.21785,9.7823 1.26735,0.485 5.89207,-0.3623 10.27716,-1.8912 10.35792,-3.6058 35.22152,-10.1017 48.65752,-12.712 8.3212,-1.617 10.8849,-2.845 11.9858,-5.7406 0.7703,-2.0256 1.864,-13.4762 2.4306,-25.4457 0.5664,-11.969 2.5666,-33.7169 4.4446,-48.3285 1.8781,-14.6111 3.8134,-29.9712 4.3008,-34.1328 1.8133,-15.4856 -8.0103,-36.16608 -29.9319,-63.01086 -12.4095,-15.1963 -40.82446,-44.35761 -59.83347,-61.40502 -5.97808,-5.36104 -18.5812,-17.3172 -28.00689,-26.56942 -13.95949,-13.70248 -17.78702,-18.54681 -20.63899,-26.12183 -3.85356,-10.23547 -10.04122,-31.25099 -13.16025,-44.69651 -2.72895,-11.76385 -21.76544,-41.94241 -25.14109,-39.85608 -0.67021,0.41248 -1.6024,7.73277 -2.07156,16.26428 -0.86893,15.80163 -5.2776,34.7414 -8.08688,34.7414 -0.85443,0 -1.55357,-1.15436 -1.55357,-2.56513 -18.90773,-19.16998 -43.66717,-62.29909 -72.13892,-54.0212 -3.56154,1.06686 -6.98808,1.42749 -7.6146,0.80098 -0.62645,-0.62651 2.01209,-4.34992 5.86348,-8.27455 3.85139,-3.92407 7.00246,-7.94847 7.00246,-8.94287 0,-0.99384 -2.89718,-7.36154 -6.43821,-14.15007 -6.61284,-12.67742 -20.56542,-26.57276 -26.65013,-26.54099 -1.57503,0.006 -7.00234,4.14926 -12.06072,9.20262 -24.82917,24.80526 -44.18526,34.75646 -60.15333,30.92603 -4.47378,-1.07355 -9.5122,-2.99601 -11.19659,-4.27245 -5.91264,-4.48091 -7.24382,-3.00325 -7.22782,8.02373 0.0223,16.68176 4.65889,51.43487 8.19529,61.45296 1.78567,5.05837 6.31246,15.39696 10.0595,22.97532 7.20162,14.56422 7.82172,17.84226 5.14282,27.18256 -1.9699,6.86879 0.11928,14.80779 5.07738,19.29483 1.80479,1.63318 3.28145,4.08683 3.28145,5.4519 0,1.36506 -4.01443,7.45685 -8.92097,13.53637 -15.44501,19.13821 -17.11608,22.74289 -21.84308,47.11561 -2.39636,12.35581 -5.47525,35.49222 -6.84193,51.41425 -2.84913,33.19354 -2.18126,36.74474 8.84649,47.04034 8.70721,8.1291 13.70978,15.1963 13.70978,19.369 0,4.6119 -5.69475,23.3399 -11.87159,39.0406 -2.6677,6.7813 -4.8503,13.222 -4.8503,14.3134 0,1.0914 6.31157,9.6062 14.02577,18.9219 20.57941,24.8515 31.12334,41.3928 31.12334,48.8268 0,3.821 -5.85623,7.8264 -25.16316,17.2113 -9.4788,4.608 -13.88993,7.924 -17.71478,13.3179 -7.40446,10.4423 -8.84772,16.0385 -11.47568,44.4998 -1.89292,20.4999 -3.09439,26.8403 -6.02044,31.7716 -2.01064,3.3878 -13.27635,15.5658 -25.03502,27.0621 -19.72074,19.2809 -21.5922,21.6482 -24.12217,30.5175 -2.49674,8.7528 -2.51129,10.4116 -0.1622,18.4916 1.60993,5.5377 5.89932,13.0849 11.40461,20.0663 8.69806,11.0297 8.93914,11.1897 16.86403,11.1897 19.22282,0 31.73654,7.7629 45.22487,28.0566 9.24258,13.9053 13.90659,25.6898 17.02294,43.0115 4.54245,25.24832 5.94279,28.45392 18.01773,41.24122 6.15589,6.5187 11.19252,12.5107 11.19252,13.315 0,0.8038 0.74953,1.4621 1.66561,1.4621 0.91614,0 8.94321,5.6436 17.83803,12.5414 8.89482,6.8978 17.09462,12.5414 18.22174,12.5414 1.12716,0 2.50611,-1.19 3.06434,-2.6448 z m -9.01812,-628.21099 c 0,-2.92521 11.4215,-19.62593 13.42194,-19.62593 1.60859,0 2.32161,3.49042 1.70798,8.36095 -0.31382,2.48878 -11.47016,13.19413 -13.87578,13.31453 -0.68977,0.0557 -1.25414,-0.88793 -1.25414,-2.04955 z M 714.0837,400.68976 c -2.06209,-3.85272 -2.23862,-13.44273 -0.30378,-16.4928 3.13502,-4.94244 9.19341,9.38934 6.75531,15.98055 -1.70296,4.60354 -4.15785,4.79807 -6.45164,0.51281 z m 61.8122,0.91134 c -5.97808,-1.10085 -13.12669,-3.25631 -15.8858,-4.78915 l -5.01657,-2.78698 9.19704,-0.10033 c 5.05838,-0.0557 15.96941,-1.1304 24.24675,-2.38621 8.27728,-1.25638 15.67065,-1.91299 16.4296,-1.45983 2.12201,1.26697 -5.74414,8.98468 -11.7774,11.55595 -2.9595,1.26083 -5.5932,2.22011 -5.85266,2.13204 -0.25919,-0.0892 -5.36288,-1.06128 -11.34096,-2.1627 z m 65.63338,-36.18952 c -2.51146,-1.00945 -3.76243,-2.91853 -3.76243,-5.74174 0,-2.53337 -2.49708,-6.99365 -6.22706,-11.12229 l -6.22712,-6.89221 -9.86107,1.03063 c -9.30055,0.9721 -10.19289,0.73911 -15.69712,-4.09352 -3.20983,-2.8182 -7.68265,-5.82647 -9.93961,-6.6843 -5.7248,-2.17663 -19.59984,-1.94754 -24.77131,0.4069 -3.57113,1.62704 -4.79567,1.49382 -7.05703,-0.76754 -2.53337,-2.53336 -2.39686,-2.86501 1.84281,-4.477 2.51843,-0.95761 14.12415,-1.74187 25.79051,-1.74354 16.84413,-0.002 22.41659,-0.60422 27.06416,-2.92633 5.52692,-2.76079 5.84598,-3.3795 5.73227,-11.11114 -0.10312,-7.01205 -0.88359,-8.86985 -5.43462,-12.93606 -2.92282,-2.6114 -5.31422,-5.13529 -5.31422,-5.60797 0,-0.47378 2.41871,-0.8595 5.37492,-0.8595 18.55005,10.83579 66.74138,50.69576 49.93844,68.4232 -6.86468,7.14471 -12.83478,8.5644 -21.45152,5.10074 z m -64.89578,-70.9627 c -3.07582,-2.32602 -2.9683,-2.45756 2.05195,-2.50829 6.21826,-0.0613 10.58797,1.37008 10.58797,3.47035 0,2.40684 -9.10207,1.714 -12.63992,-0.96206 z m -64.69885,764.50942 c 2.66308,-2.0607 2.71915,-11.6156 0.0836,-14.251 -2.77349,-2.7736 -12.20726,-2.5205 -14.62463,0.3902 -1.09506,1.3194 -1.75156,4.8767 -1.45887,7.905 0.80911,8.3716 8.9568,11.4032 15.99989,5.9536 z m 395.80915,-87.90422 c 0.539,-1.6984 1.634,-9.7873 2.4335,-17.976 1.5255,-15.6233 8.4368,-66.8213 9.5299,-70.5954 1.0193,-3.5194 4.0358,-0.5128 7.4274,7.3972 6.4545,15.0575 13.8559,6.4028 13.8559,-16.2019 0,-8.2054 0.4588,-14.9181 1.0199,-14.9181 1.8178,0 10.1244,13.8329 18.0496,30.057 11.4034,23.3455 19.5326,34.5118 28.5005,39.1493 2.6094,1.3495 5.5474,1.9442 6.5288,1.3216 1.9112,-1.2123 5.651,-23.1253 6.7572,-39.5924 0.8287,-12.3363 -1.6286,-18.6148 -12.0288,-30.736 -8.7541,-10.2031 -12.5964,-16.8696 -12.5964,-21.8549 0,-4.3622 2.8994,-4.3394 16.7219,0.1282 7.241,2.3416 15.7336,3.5902 25.4416,3.7407 12.5593,0.195 15.0183,-0.2341 17.8012,-3.1181 6.7344,-6.9753 6.2582,-10.5164 -2.5499,-18.9643 -4.4674,-4.2853 -12.9532,-10.3018 -18.8572,-13.3708 l -10.7345,-5.5807 -7.6408,3.9085 c -6.0865,3.1125 -10.3622,3.9185 -21.0184,3.9603 -13.5724,0.056 -25.8885,3.5233 -43.6998,12.3123 -6.213,3.0657 -15.642,12.0498 -15.6762,14.9366 -0.059,4.9519 -5.5554,43.8018 -8.4661,59.8387 -4.1091,22.6392 -6.6421,79.2428 -3.546,79.2428 0.9718,0 2.2078,-1.3896 2.7467,-3.0874 z m 47.5506,-204.0801 c 3.5091,-7.2562 8.1423,-18.5686 10.2961,-25.1381 3.0848,-9.4094 4.4684,-11.7086 6.5192,-10.8313 1.4318,0.612 8.6897,1.4771 16.1286,1.9225 35.2639,2.1108 94.1763,-22.2569 107.196,-44.3393 5.327,-9.0348 4.6652,-11.6362 -6.9399,-27.2812 -7.6209,-10.2739 -9.2086,-13.5898 -9.2362,-19.2909 -0.028,-6.1219 0.6616,-7.3431 6.2374,-11.0181 3.4489,-2.2736 13.0431,-6.1826 21.3204,-8.687 23.0835,-6.9847 30.0994,-10.0052 30.0994,-12.9578 0,-1.4559 -8.4839,-10.59 -18.8529,-20.2981 -16.6209,-15.562 -19.8581,-17.8674 -27.3428,-19.4727 -28.8608,-6.1893 -35.843,14.5631 -23.8734,70.9572 0.9748,4.5923 0.022,3.9915 -11.2937,-7.1068 -6.7971,-6.6682 -13.587,-12.1234 -15.0886,-12.1234 -1.5016,0 -5.3067,3.574 -8.4558,7.9429 -7.1847,9.9668 -77.2583,89.063 -81.676,92.1922 -2.8252,2.0011 -4.4405,1.8707 -12.0162,-0.9721 -5.3005,-1.9882 -10.4008,-2.8572 -12.9326,-2.2028 -3.9566,1.0228 -4.1644,1.6566 -3.8813,11.8413 0.6553,23.5729 1.6557,26.924 11.621,38.9297 5.6406,6.7958 10.5114,11.1268 12.5135,11.1268 2.4396,0 4.9093,-3.3739 9.6578,-13.193 z m 214.5058,-174.1859 c 10.266,-13.5269 18.1831,-20.8215 34.5913,-31.8719 21.5719,-14.5286 28.843,-21.2129 36.1668,-33.24983 5.3307,-8.76116 10.9021,-25.74837 10.9021,-33.24034 0,-3.94023 -22.7794,-27.67418 -28.2181,-29.40043 -6.5213,-2.06962 -17.9006,5.96916 -24.9355,17.6154 -4.1731,6.90893 -11.2045,34.48891 -12.9514,50.80111 -0.6595,6.15919 -1.741,10.57719 -2.4033,9.81799 -1.4557,-1.6689 -7.7705,-19.63318 -9.1552,-26.04491 -0.6617,-3.06401 -2.0585,-4.59852 -4.1855,-4.59852 -2.35,0 -4.1519,2.53726 -6.8287,9.61509 -3.7584,9.93782 -3.8387,16.88244 -0.5783,50.05974 0.7239,7.3671 0.2475,12.6017 -1.6547,18.1845 -1.4691,4.3121 -2.2629,8.5003 -1.764,9.308 1.3464,2.1783 6.5698,-1.1393 11.0145,-6.9959 z m -506.11441,-3.2858 c 30.35024,-0.8378 56.4991,-1.5485 58.10858,-1.5803 9.9162,-0.195 -5.872,-13.3301 -28.69778,-23.8783 -9.86251,-4.5572 -18.20485,-7.0538 -27.91469,-8.3531 -30.16011,-4.035 -74.13385,4.5394 -101.82742,19.8567 -13.93954,7.7093 -20.08439,12.9271 -18.41153,15.6338 1.08609,1.7575 7.58722,1.9621 32.45937,1.0206 17.10572,-0.6471 55.93323,-1.8622 86.28347,-2.6994 z m -293.35281,-2.5791 c 3.02773,-0.8813 8.24457,-10.9545 8.24457,-15.9198 0,-1.8539 -1.11184,-5.5205 -2.47066,-8.1486 -6.33816,-12.2566 -9.06299,-29.18415 -10.91299,-67.79612 -2.52885,-52.78043 -5.66688,-83.01306 -9.17152,-88.36184 -1.5426,-2.35444 -6.08084,-5.8666 -10.08496,-7.80466 -6.76528,-3.27526 -7.63422,-3.3416 -12.28441,-0.93643 -2.75229,1.42303 -5.48444,4.10077 -6.07145,5.95021 -1.35278,4.26241 -2.8753,4.23844 -6.80675,-0.10591 -3.34065,-3.69108 -5.28206,-3.60357 -16.60975,0.75026 -14.07114,5.40897 -28.13542,1.6694 -36.88972,-9.80795 -2.46175,-3.22733 -5.07967,-5.86771 -5.81766,-5.86771 -0.73805,0 -7.85667,3.76242 -15.81925,8.36094 -7.96252,4.59853 -15.13471,8.36095 -15.93814,8.36095 -0.80337,0 -8.79454,-8.84198 -17.75809,-19.64822 -31.96106,-38.53282 -63.10208,-73.24469 -86.72956,-96.67541 -17.91227,-17.76255 -19.18319,-18.67389 -31.88837,-22.8566 -13.01883,-4.28582 -23.12203,-5.54442 -57.15605,-7.11851 -20.00981,-0.92583 -35.7887,-4.18549 -49.38722,-10.20314 -11.58148,-5.12526 -18.73928,-4.52662 -29.27575,2.4492 -8.38525,5.55111 -25.40228,23.97697 -25.40228,27.50529 0,1.38624 3.78901,5.53773 8.42008,9.22491 4.63108,3.68718 14.55184,12.4344 22.04615,19.43809 11.78821,11.01582 14.23646,12.59939 18.15156,11.73932 3.95188,-0.86786 6.42238,0.81101 19.48987,13.24653 11.3662,10.81628 15.43146,13.77327 16.90723,12.29784 1.4757,-1.47599 0.69853,-3.22677 -3.23234,-7.28239 -5.94453,-6.13359 -5.8515,-9.82968 0.36398,-14.46555 3.76315,-2.80705 4.95653,-2.97204 8.36094,-1.15827 4.78542,2.54953 8.02584,6.52265 8.09986,9.93058 0.10591,4.87554 9.86877,23.1771 13.36024,25.04605 4.55505,2.43749 9.16193,0.92361 13.33593,-4.38281 4.03628,-5.13139 5.07906,-4.59183 10.13704,5.24232 4.5944,8.93283 14.70975,18.67333 21.0435,20.26247 2.7648,0.69396 6.63464,0.0557 10.41657,-1.76527 7.57842,-3.6136 7.6802,-3.49153 17.11408,20.56291 10.76059,27.43673 17.21028,38.71007 22.14687,38.71007 2.307,0 4.58542,-4.67934 10.43267,-21.42632 0.42195,-1.20788 1.56618,-1.70229 2.54318,-1.09863 2.21855,1.3712 16.44504,23.21389 29.03885,44.58447 11.76168,19.9587 20.98799,30.80006 24.92583,29.28896 2.39702,-0.9197 2.83363,-3.96811 2.97588,-20.77863 0.1884,-22.26687 1.32075,-29.01304 4.25628,-25.35708 1.02104,1.27142 2.4021,4.08906 3.06897,6.26068 2.00523,6.5299 17.25231,32.27772 26.14869,44.15695 9.46164,12.63395 29.93125,33.53297 37.42745,38.21232 7.16071,4.47032 11.56938,4.20165 10.15604,-0.61816 -1.0309,-3.51605 -5.87947,-32.23312 -5.94558,-35.21463 -0.063,-2.84105 3.46472,0.98603 6.35427,6.89388 1.65836,3.39008 3.85729,7.66921 4.88652,9.50862 1.02924,1.83941 5.82831,10.49299 10.66461,19.23018 4.83626,8.73724 11.7696,20.02444 15.40741,25.08284 8.00425,11.1301 27.42895,31.4394 32.05305,33.5129 3.05259,1.369 11.07253,0.9102 17.67433,-1.0111 z M 195.0692,318.92917 c -3.84966,-4.25405 -3.53958,-5.57062 2.7468,-11.66408 6.4935,-6.29356 10.05504,-6.71941 13.62115,-1.62815 3.40079,4.85548 3.35241,5.16985 -1.72603,11.20534 -4.91735,5.84374 -10.51924,6.64194 -14.64192,2.08689 z m 26.36201,-6.4513 c -2.70582,-8.66975 -6.12422,-14.15787 -9.88654,-15.87243 -5.3325,-2.42913 -5.367,-6.90837 -0.0797,-10.37259 4.04786,-2.65209 4.17751,-2.58242 8.16195,4.40622 4.39401,7.70657 7.06383,22.20556 4.39295,23.85657 -0.90314,0.55795 -2.06788,-0.35116 -2.58838,-2.01777 z m 926.17919,198.82945 c 4.9043,-5.11913 10.6838,-20.15713 12.5353,-32.61661 0.6544,-4.40399 1.9055,-8.05828 2.7802,-8.12015 0.8747,-0.0613 5.4718,7.24559 10.2157,16.2403 5.1737,9.80906 11.4542,18.99217 15.6942,22.9469 6.2422,5.82256 7.767,6.48085 13.0379,5.62524 7.2761,-1.18056 14.7398,-7.99752 17.3215,-15.82002 1.0878,-3.29645 1.5644,-10.76333 1.1007,-17.24473 -0.7164,-10.01252 -2.3019,-14.39365 -12.7733,-35.29769 -6.5755,-13.12613 -11.9446,-24.57004 -11.9313,-25.43066 0.064,-4.17156 7.546,-9.30462 13.5628,-9.30462 5.2295,0 7.1882,1.08525 11.8319,6.55665 3.0607,3.60636 8.7793,12.85803 12.7081,20.55902 10.4019,20.39012 17.4057,30.49404 21.5492,31.08711 2.9081,0.41805 4.7712,-1.69671 9.9512,-11.28728 3.9274,-7.27123 7.4315,-11.79952 9.1308,-11.79952 1.5167,0 7.3281,2.35723 12.9143,5.23841 5.5862,2.88062 11.229,4.8265 12.5397,4.32372 1.3106,-0.50165 2.8746,-3.98928 3.4754,-7.74669 0.6009,-3.75741 1.5293,-6.83201 2.0632,-6.83201 0.534,0 2.8838,1.50497 5.2223,3.34438 5.5676,4.37946 8.0948,4.21893 13.1495,-0.8361 3.4766,-3.47648 3.9945,-5.16985 3.0771,-10.061 -1.0937,-6.76958 1.2505,-12.18358 3.5553,-18.36622 1.3314,-5.16539 1.6491,-10.15019 2.8369,-15.19518 1.3516,-1.35169 7.542,2.10082 15.9445,8.8927 5.1901,4.19497 8.2239,5.53216 10.9799,4.84043 2.1733,-0.54625 5.3817,0.14493 7.4728,1.61088 3.3159,2.32267 3.7638,2.30762 4.7091,-0.15607 0.6754,-1.76026 -0.8734,-4.70109 -4.3825,-8.32138 -6.2255,-6.42287 -7.7764,-14.53857 -5.572,-29.15796 1.6175,-10.72766 4.3051,-12.39371 8.1131,-5.02995 2.1742,4.20444 2.3749,6.22055 0.9342,9.38266 -3.0194,6.62688 -2.1467,10.20425 4.2045,17.23414 l 6.0395,6.68485 4.958,-4.17155 c 2.7269,-2.2948 6.3952,-4.17211 8.1517,-4.17211 3.8018,0 8.8319,-10.59778 7.3085,-15.39808 -0.5507,-1.73462 -0.088,-8.56997 1.0289,-15.18961 1.9364,-11.47958 2.145,-11.86196 4.5222,-8.2818 3.5962,5.41622 6.6596,4.63531 9.8743,-2.5172 2.4749,-5.50652 2.8991,-5.8142 3.4808,-2.52557 0.4532,2.5618 -1.487,6.29468 -6.1402,11.81291 -3.7416,4.43743 -6.8028,8.5839 -6.8028,9.21432 0,3.17995 4.9699,0.26198 12.9069,-7.57558 10.4863,-10.35587 11.2834,-15.12384 3.9289,-23.50039 -2.6964,-3.07125 -5.4138,-7.62017 -6.0386,-10.1095 -0.6248,-2.48989 -3.3459,-6.10015 -6.0469,-8.02316 -6.137,-4.36999 -8.925,-3.9068 -41.3738,6.87548 -14.5028,4.81869 -29.1627,8.55381 -36.1168,9.20095 -21.393,1.99213 -33.2701,8.14467 -36.7229,19.02338 -0.8823,2.78029 -2.2591,3.0562 -11.5366,2.31097 l -10.5347,-0.84558 -12.3386,11.11282 c -14.4565,13.02078 -21.2327,15.73251 -32.3273,12.93884 -13.6683,-3.44136 -20.8438,-2.54786 -26.2814,3.27304 l -4.8331,5.17375 -10.9191,-3.91571 -10.9191,-3.91627 -6.1992,3.34048 c -3.4096,1.83773 -7.1216,5.19995 -8.249,7.47134 -2.9166,5.87719 -6.2911,6.50983 -20.5485,3.85217 -13.4443,-2.5055 -41.2479,-15.52126 -68.4648,-32.0503 -7.7344,-4.69662 -14.9205,-8.53987 -15.9693,-8.53987 -2.822,0 -21.8872,14.24259 -24.9845,18.66442 -4.3025,6.14307 -3.2601,10.79788 7.5905,33.89639 9.3594,19.9247 29.6661,68.36413 35.9739,85.81287 2.7743,7.67367 6.7584,9.26337 10.8291,4.31982 3.721,-4.51882 15.1184,-12.2644 18.0136,-12.2421 1.4715,0 6.0493,3.20949 10.1729,7.1068 9.3402,8.82805 20.1005,16.26651 23.5433,16.27598 1.4374,0.003 4.6198,-2.08689 7.072,-4.64646 z m 231.3884,-116.85873 c -0.6131,-0.61313 -1.1148,-2.49435 -1.1148,-4.18047 0,-3.48596 3.3666,-4.0467 6.3544,-1.05905 2.9877,2.98764 2.4266,6.35432 -1.0591,6.35432 -1.6861,0 -3.5673,-0.50166 -4.1805,-1.1148 z M 683.02601,196.48366 c 17.19763,-13.01075 58.0932,-17.30605 120.46096,-12.6529 21.1532,1.57854 40.69719,3.02164 43.43105,3.20726 8.96082,0.60867 7.44777,-4.81312 -4.51881,-16.19349 -14.95133,-14.21918 -25.68327,-19.22293 -45.59715,-21.26021 -33.05467,-3.38173 -66.09412,2.79033 -92.81031,17.33726 -31.49568,17.14942 -30.89124,16.6957 -31.46497,23.61633 -0.56436,6.80693 0.43254,11.08104 2.5672,11.00468 0.71865,-0.0557 4.28805,-2.30205 7.93203,-5.05893 z"
     id="path3400"
     inkscape:connector-curvature="0"
     sodipodi:nodetypes="cccssscscsscsscccsssscssssssssssscssscsscsssssscsssccsscscsssssscsssssscccscssssssssscsssccsssscssscssssssssssssccsssscssssssssscssssscsssssccssscsscssccsssscsssssscssccscsssssssssssscsssssssssssssssscssscsssccssssscccssssscscccccssssssscccscssscssssssssscscsssccsssscscsscsccssscccsssssscssscscssssccscsssssssscssccsssscssscssssssssssssssssscssscssscssssccssccsccsccccccssccccssscsscssscssssccssssssscsscsccsssccsssscccccccscssccsscssscsssssscsscscssssssssssscssssccsssssscsssssssssscscsssssssssssssscsssssssccsscsscscssscssssscscsssccccssccsscsssssscscsssssccssscccsccsssssscsscscsssssssssssscssscccscssssssscscsssssssscsssscs" />
</svg>
